<svg xmlns="http://www.w3.org/2000/svg" xmlns:xlink="http://www.w3.org/1999/xlink" x="0" y="0" width="702" height="405.8333435058594" style="
        width:702px;
        height:405.8333435058594px;
        background: #FFF;
        fill: none;
">
        
        
        <svg xmlns="http://www.w3.org/2000/svg" class="role-diagram-draw-area" style="overflow: visible;"><g class="shapes-region" style="stroke: black; fill: none;"><g class="grouped-shape"><g class="composite-shape"><path class="real" d=" M81.67,121.67 C81.67,117.8 84.8,114.67 88.67,114.67 L144.67,114.67 C148.53,114.67 151.67,117.8 151.67,121.67 L151.67,147.67 C151.67,151.53 148.53,154.67 144.67,154.67 L88.67,154.67 C84.8,154.67 81.67,151.53 81.67,147.67 Z" style="stroke-width: 1; stroke: rgb(74, 74, 74); stroke-opacity: 1; fill: none; fill-opacity: 1;"/></g></g><g class="arrow-line"><path class="connection real" stroke-dasharray="" d="  M151.56,135.22 L212.11,135.22" style="stroke: rgb(0, 0, 0); stroke-width: 1; fill: none; fill-opacity: 1;"/><g stroke="#000" transform="matrix(-1,1.2246467991473532e-16,-1.2246467991473532e-16,-1,214.11110432942712,135.22221883138022)" style="stroke: rgb(0, 0, 0); stroke-width: 1;"><path d=" M10.93,-3.29 Q4.96,-0.45 0,0 Q4.96,0.45 10.93,3.29"/></g></g><g class="composite-shape"><defs><!-- react-text: 1032 --> <!-- /react-text --><radialGradient id="_pgf02jpngyh2dg-full-view" gradientTransform="matrix(1.32, 0, 0, 1.32, -0.16, -0.16)" cx="0.5" cy="0.5" fx="0.41" fy="0.39"><!-- react-text: 1034 --> <!-- /react-text --><stop offset="0" style="stop-color: rgb(255, 255, 255); stop-opacity: 1;"/><stop offset="1" style="stop-color: rgb(0, 0, 0); stop-opacity: 1;"/></radialGradient></defs><path class="real" d=" M12.56,130.52 L18.86,124.22 L34.89,124.22 L34.89,138.92 L28.59,145.22 L12.56,145.22 Z" style="stroke-width: 1; stroke: rgb(74, 74, 74); stroke-opacity: 1; fill: url(&quot;#_pgf02jpngyh2dg-full-view&quot;); fill-opacity: 1;"/><path class="real" d=" M34.89,124.22 L28.59,130.52 L12.56,130.52" style="stroke-width: 1; stroke: rgb(74, 74, 74); stroke-opacity: 1; fill: none; fill-opacity: 1;"/><path class="real" d=" M28.59,130.52 L28.59,145.22" style="stroke-width: 1; stroke: rgb(74, 74, 74); stroke-opacity: 1; fill: none; fill-opacity: 1;"/></g><g class="arrow-line"><path class="connection real" stroke-dasharray="" d="  M37.56,135.22 L77.22,135.22" style="stroke: rgb(0, 0, 0); stroke-width: 1; fill: none; fill-opacity: 1;"/><g stroke="#000" transform="matrix(-1,1.2246467991473532e-16,-1.2246467991473532e-16,-1,79.22221883138018,135.22221883138013)" style="stroke: rgb(0, 0, 0); stroke-width: 1;"><path d=" M10.93,-3.29 Q4.96,-0.45 0,0 Q4.96,0.45 10.93,3.29"/></g></g><g class="grouped-shape"><g class="composite-shape"><path class="real" d=" M214.33,121.67 C214.33,117.8 217.47,114.67 221.33,114.67 L277.33,114.67 C281.2,114.67 284.33,117.8 284.33,121.67 L284.33,147.67 C284.33,151.53 281.2,154.67 277.33,154.67 L221.33,154.67 C217.47,154.67 214.33,151.53 214.33,147.67 Z" style="stroke-width: 1; stroke: rgb(74, 74, 74); stroke-opacity: 1; fill: none; fill-opacity: 1;"/></g></g><g class="arrow-line"><path class="connection real" stroke-dasharray="" d="  M284.22,135.89 L369.89,135.89" style="stroke: rgb(0, 0, 0); stroke-width: 1; fill: none; fill-opacity: 1;"/><g stroke="#000" transform="matrix(-1,1.2246467991473532e-16,-1.2246467991473532e-16,-1,371.8888753255208,135.88888549804688)" style="stroke: rgb(0, 0, 0); stroke-width: 1;"><path d=" M10.93,-3.29 Q4.96,-0.45 0,0 Q4.96,0.45 10.93,3.29"/></g></g><g class="grouped-shape"><g class="composite-shape"><defs><!-- react-text: 1057 --> <!-- /react-text --><linearGradient id="_pgfwvgvso09cdg-full-view" gradientTransform=" translate(0,0) rotate(0 0.5 0.5)" x1="0" y1="0.5" x2="1" y2="0.5"><!-- react-text: 1059 --> <!-- /react-text --><stop offset="0" style="stop-color: rgb(254, 255, 255); stop-opacity: 1;"/><stop offset="1" style="stop-color: rgb(210, 235, 249); stop-opacity: 1;"/></linearGradient></defs><path class="real" d=" M372,123 C372,119.13 375.13,116 379,116 L435,116 C438.87,116 442,119.13 442,123 L442,149 C442,152.87 438.87,156 435,156 L379,156 C375.13,156 372,152.87 372,149 Z" style="stroke-width: 1; stroke: rgb(74, 74, 74); stroke-opacity: 1; fill: url(&quot;#_pgfwvgvso09cdg-full-view&quot;); fill-opacity: 1;"/></g></g><g class="arrow-line"><path class="connection real" stroke-dasharray="" d="  M441.22,135.89 L504.11,135.89" style="stroke: rgb(0, 0, 0); stroke-width: 1; fill: none; fill-opacity: 1;"/><g stroke="#000" transform="matrix(-1,1.2246467991473532e-16,-1.2246467991473532e-16,-1,506.1111106872558,135.88888549804688)" style="stroke: rgb(0, 0, 0); stroke-width: 1;"><path d=" M10.93,-3.29 Q4.96,-0.45 0,0 Q4.96,0.45 10.93,3.29"/></g></g><g class="grouped-shape"><g class="composite-shape"><path class="real" d=" M505.61,123 C505.61,119.13 508.75,116 512.61,116 L568.61,116 C572.48,116 575.61,119.13 575.61,123 L575.61,149 C575.61,152.87 572.48,156 568.61,156 L512.61,156 C508.75,156 505.61,152.87 505.61,149 Z" style="stroke-width: 1; stroke: rgb(74, 74, 74); stroke-opacity: 1; fill: none; fill-opacity: 1;"/></g></g><g class="arrow-line"><path class="connection real" stroke-dasharray="" d="  M576.22,136.89 L614.83,136.89" style="stroke: rgb(0, 0, 0); stroke-width: 1; fill: none; fill-opacity: 1;"/><g stroke="#000" transform="matrix(-1,1.2246467991473532e-16,-1.2246467991473532e-16,-1,616.8333435058594,136.88888549804685)" style="stroke: rgb(0, 0, 0); stroke-width: 1;"><path d=" M10.93,-3.29 Q4.96,-0.45 0,0 Q4.96,0.45 10.93,3.29"/></g></g><g class="composite-shape"><defs><!-- react-text: 1079 --> <!-- /react-text --><radialGradient id="_pgfl6ilpspntdg-full-view" gradientTransform="matrix(1.32, 0, 0, 1.32, -0.16, -0.16)" cx="0.5" cy="0.5" fx="0.7" fy="0.66"><!-- react-text: 1081 --> <!-- /react-text --><stop offset="0" style="stop-color: rgb(255, 255, 255); stop-opacity: 1;"/><stop offset="1" style="stop-color: rgb(0, 0, 0); stop-opacity: 1;"/></radialGradient></defs><path class="real" d=" M617.89,132.02 L624.19,125.72 L640.22,125.72 L640.22,140.42 L633.92,146.72 L617.89,146.72 Z" style="stroke-width: 1; stroke: rgb(74, 74, 74); stroke-opacity: 1; fill: url(&quot;#_pgfl6ilpspntdg-full-view&quot;); fill-opacity: 1;"/><path class="real" d=" M640.22,125.72 L633.92,132.02 L617.89,132.02" style="stroke-width: 1; stroke: rgb(74, 74, 74); stroke-opacity: 1; fill: none; fill-opacity: 1;"/><path class="real" d=" M633.92,132.02 L633.92,146.72" style="stroke-width: 1; stroke: rgb(74, 74, 74); stroke-opacity: 1; fill: none; fill-opacity: 1;"/></g><g class="arrow-line"><path class="connection real" stroke-dasharray="" d="  M248.44,155.11 L248.44,176.11" style="stroke: rgb(0, 0, 0); stroke-width: 1; fill: none; fill-opacity: 1;"/><g stroke="#000" transform="matrix(-1.8369701987210297e-16,-1,1,-1.8369701987210297e-16,248.44443766276038,178.1111145019531)" style="stroke: rgb(0, 0, 0); stroke-width: 1;"><path d=" M10.93,-3.29 Q4.96,-0.45 0,0 Q4.96,0.45 10.93,3.29"/></g></g><g class="composite-shape"><path class="real" d=" M215.11,179.33 L281.67,179.33 L281.67,260.11 L215.11,260.11 Z" style="stroke-width: 1; stroke: rgb(0, 0, 0); fill: none; fill-opacity: 1;"/></g><g class="arrow-line"><path class="connection real" stroke-dasharray="" d="  M248.44,260.44 L248.44,280.67" style="stroke: rgb(0, 0, 0); stroke-width: 1; fill: none; fill-opacity: 1;"/><g stroke="#000" transform="matrix(-1.8369701987210297e-16,-1,1,-1.8369701987210297e-16,248.44443766276038,282.66667175292974)" style="stroke: rgb(0, 0, 0); stroke-width: 1;"><path d=" M10.93,-3.29 Q4.96,-0.45 0,0 Q4.96,0.45 10.93,3.29"/></g></g><g class="composite-shape"><path class="real" d=" M221.11,284 L276.17,284 L276.17,346.44 L221.11,346.44 Z" style="stroke-width: 1; stroke: rgb(0, 0, 0); fill: none; fill-opacity: 1;"/></g><g class="arrow-line"><path class="connection real" stroke-dasharray="" d="  M248.44,345.44 L248.44,365.67" style="stroke: rgb(0, 0, 0); stroke-width: 1; fill: none; fill-opacity: 1;"/><g stroke="#000" transform="matrix(-1.8369701987210297e-16,-1,1,-1.8369701987210297e-16,248.44443766276038,367.66667175292974)" style="stroke: rgb(0, 0, 0); stroke-width: 1;"><path d=" M10.93,-3.29 Q4.96,-0.45 0,0 Q4.96,0.45 10.93,3.29"/></g></g><g class="arrow-line"><path class="connection real" stroke-dasharray="" d="  M408.44,156.11 L408.44,177.11" style="stroke: rgb(0, 0, 0); stroke-width: 1; fill: none; fill-opacity: 1;"/><g stroke="#000" transform="matrix(-1.8369701987210297e-16,-1,1,-1.8369701987210297e-16,408.4444376627604,179.11111450195318)" style="stroke: rgb(0, 0, 0); stroke-width: 1;"><path d=" M10.93,-3.29 Q4.96,-0.45 0,0 Q4.96,0.45 10.93,3.29"/></g></g><g class="composite-shape"><path class="real" d=" M369.11,180.33 L448,180.33 L448,245.25 L369.11,245.25 Z" style="stroke-width: 1; stroke: rgb(0, 0, 0); fill: none; fill-opacity: 1;"/></g><g class="arrow-line"><path class="connection real" stroke-dasharray="" d="  M408.94,245.44 L408.94,279.08" style="stroke: rgb(0, 0, 0); stroke-width: 1; fill: none; fill-opacity: 1;"/><g stroke="#000" transform="matrix(-1.8369701987210297e-16,-1,1,-1.8369701987210297e-16,408.9444376627604,281.08334350585943)" style="stroke: rgb(0, 0, 0); stroke-width: 1;"><path d=" M10.93,-3.29 Q4.96,-0.45 0,0 Q4.96,0.45 10.93,3.29"/></g></g><g class="composite-shape"><path class="real" d=" M369.11,281.33 L448,281.33 L448,346.25 L369.11,346.25 Z" style="stroke-width: 1; stroke: rgb(0, 0, 0); fill: none; fill-opacity: 1;"/></g><g class="arrow-line"><path class="connection real" stroke-dasharray="" d="  M408.94,346.75 L408.94,366.1" style="stroke: rgb(0, 0, 0); stroke-width: 1; fill: none; fill-opacity: 1;"/><g stroke="#000" transform="matrix(-1.8369701987210297e-16,-1,1,-1.8369701987210297e-16,408.9444376627604,368.0989608764649)" style="stroke: rgb(0, 0, 0); stroke-width: 1;"><path d=" M10.93,-3.29 Q4.96,-0.45 0,0 Q4.96,0.45 10.93,3.29"/></g></g><g class="arrow-line"><path class="connection real" stroke-dasharray="" d="  M540.44,156.11 L540.44,177.11" style="stroke: rgb(0, 0, 0); stroke-width: 1; fill: none; fill-opacity: 1;"/><g stroke="#000" transform="matrix(-1.8369701987210297e-16,-1,1,-1.8369701987210297e-16,540.4444376627604,179.11111450195312)" style="stroke: rgb(0, 0, 0); stroke-width: 1;"><path d=" M10.93,-3.29 Q4.96,-0.45 0,0 Q4.96,0.45 10.93,3.29"/></g></g><g class="arrow-line"><path class="connection real" stroke-dasharray="" d="  M540.94,204.44 L540.94,227.08" style="stroke: rgb(0, 0, 0); stroke-width: 1; fill: none; fill-opacity: 1;"/><g stroke="#000" transform="matrix(-1.8369701987210297e-16,-1,1,-1.8369701987210297e-16,540.9444376627604,229.08333587646484)" style="stroke: rgb(0, 0, 0); stroke-width: 1;"><path d=" M10.93,-3.29 Q4.96,-0.45 0,0 Q4.96,0.45 10.93,3.29"/></g></g><g class="arrow-line"><path class="connection real" stroke-dasharray="" d="  M540.94,256.44 L540.94,279.08" style="stroke: rgb(0, 0, 0); stroke-width: 1; fill: none; fill-opacity: 1;"/><g stroke="#000" transform="matrix(-1.8369701987210297e-16,-1,1,-1.8369701987210297e-16,540.9444376627604,281.08333587646484)" style="stroke: rgb(0, 0, 0); stroke-width: 1;"><path d=" M10.93,-3.29 Q4.96,-0.45 0,0 Q4.96,0.45 10.93,3.29"/></g></g><g/></g><g/><g><g><defs><!-- react-text: 1454 --> <!-- /react-text --><linearGradient id="_pgf9qaid41ecdg-full-view" gradientTransform=" translate(0,0) rotate(0 0.5 0.5)" x1="0" y1="0.5" x2="1" y2="0.5"><!-- react-text: 1456 --> <!-- /react-text --><stop offset="0" style="stop-color: rgb(205, 235, 142); stop-opacity: 1;"/><stop offset="1" style="stop-color: rgb(165, 201, 86); stop-opacity: 1;"/></linearGradient></defs><rect rx="0" ry="0" x="214.94443766276035" y="179.33333333333334" width="68.00000000000003" height="25" style="stroke: rgb(0, 0, 0); stroke-width: 1; fill: url(&quot;#_pgf9qaid41ecdg-full-view&quot;); fill-opacity: 1;"/></g><g><defs><!-- react-text: 1462 --> <!-- /react-text --><linearGradient id="_pgfg7xq34sfgdg-full-view" gradientTransform=" translate(0,0) rotate(0 0.5 0.5)" x1="0" y1="0.5" x2="1" y2="0.5"><!-- react-text: 1464 --> <!-- /react-text --><stop offset="0" style="stop-color: rgb(205, 235, 142); stop-opacity: 1;"/><stop offset="1" style="stop-color: rgb(165, 201, 86); stop-opacity: 1;"/></linearGradient></defs><rect rx="0" ry="0" x="220.94443766276035" y="284.00000508626306" width="56.00000000000003" height="25" style="stroke: rgb(0, 0, 0); stroke-width: 1; fill: url(&quot;#_pgfg7xq34sfgdg-full-view&quot;); fill-opacity: 1;"/></g><g><defs><!-- react-text: 1470 --> <!-- /react-text --><linearGradient id="_pgfipbkybxeydg-full-view" gradientTransform=" translate(0,0) rotate(0 0.5 0.5)" x1="0" y1="0.5" x2="1" y2="0.5"><!-- react-text: 1472 --> <!-- /react-text --><stop offset="0" style="stop-color: rgb(205, 235, 142); stop-opacity: 1;"/><stop offset="1" style="stop-color: rgb(165, 201, 86); stop-opacity: 1;"/></linearGradient></defs><rect rx="0" ry="0" x="220.94443766276035" y="369.00000508626306" width="56.00000000000003" height="25" style="stroke: rgb(0, 0, 0); stroke-width: 1; fill: url(&quot;#_pgfipbkybxeydg-full-view&quot;); fill-opacity: 1;"/></g><g><defs><!-- react-text: 1478 --> <!-- /react-text --><linearGradient id="_pgfcz8pwwno3dg-full-view" gradientTransform=" translate(0,0) rotate(0 0.5 0.5)" x1="0" y1="0.5" x2="1" y2="0.5"><!-- react-text: 1480 --> <!-- /react-text --><stop offset="0" style="stop-color: rgb(205, 235, 142); stop-opacity: 1;"/><stop offset="1" style="stop-color: rgb(165, 201, 86); stop-opacity: 1;"/></linearGradient></defs><rect rx="0" ry="0" x="369.1111043294271" y="180.33333333333334" width="80" height="25" style="stroke: rgb(0, 0, 0); stroke-width: 1; fill: url(&quot;#_pgfcz8pwwno3dg-full-view&quot;); fill-opacity: 1;"/></g><g><defs><!-- react-text: 1486 --> <!-- /react-text --><linearGradient id="_pgfu9c3q3hnhdg-full-view" gradientTransform=" translate(0,0) rotate(0 0.5 0.5)" x1="0" y1="0.5" x2="1" y2="0.5"><!-- react-text: 1488 --> <!-- /react-text --><stop offset="0" style="stop-color: rgb(205, 235, 142); stop-opacity: 1;"/><stop offset="1" style="stop-color: rgb(165, 201, 86); stop-opacity: 1;"/></linearGradient></defs><rect rx="0" ry="0" x="368.9444376627604" y="281.33333333333337" width="80" height="25" style="stroke: rgb(0, 0, 0); stroke-width: 1; fill: url(&quot;#_pgfu9c3q3hnhdg-full-view&quot;); fill-opacity: 1;"/></g><g><defs><!-- react-text: 1494 --> <!-- /react-text --><linearGradient id="_pgfh79gdrd79dg-full-view" gradientTransform=" translate(0,0) rotate(0 0.5 0.5)" x1="0" y1="0.5" x2="1" y2="0.5"><!-- react-text: 1496 --> <!-- /react-text --><stop offset="0" style="stop-color: rgb(205, 235, 142); stop-opacity: 1;"/><stop offset="1" style="stop-color: rgb(165, 201, 86); stop-opacity: 1;"/></linearGradient></defs><rect rx="0" ry="0" x="381.1111043294271" y="368.2656224568685" width="56" height="25" style="stroke: rgb(0, 0, 0); stroke-width: 1; fill: url(&quot;#_pgfh79gdrd79dg-full-view&quot;); fill-opacity: 1;"/></g><g><defs><!-- react-text: 1502 --> <!-- /react-text --><linearGradient id="_pgfuz55q3px6dg-full-view" gradientTransform=" translate(0,0) rotate(0 0.5 0.5)" x1="0" y1="0.5" x2="1" y2="0.5"><!-- react-text: 1504 --> <!-- /react-text --><stop offset="0" style="stop-color: rgb(205, 235, 142); stop-opacity: 1;"/><stop offset="1" style="stop-color: rgb(165, 201, 86); stop-opacity: 1;"/></linearGradient></defs><rect rx="0" ry="0" x="514.1111043294271" y="179.33333333333334" width="53" height="25" style="stroke: rgb(0, 0, 0); stroke-width: 1; fill: url(&quot;#_pgfuz55q3px6dg-full-view&quot;); fill-opacity: 1;"/></g><g><defs><!-- react-text: 1510 --> <!-- /react-text --><linearGradient id="_pgf2h2g4x1cudg-full-view" gradientTransform=" translate(0,0) rotate(0 0.5 0.5)" x1="0" y1="0.5" x2="1" y2="0.5"><!-- react-text: 1512 --> <!-- /react-text --><stop offset="0" style="stop-color: rgb(205, 235, 142); stop-opacity: 1;"/><stop offset="1" style="stop-color: rgb(165, 201, 86); stop-opacity: 1;"/></linearGradient></defs><rect rx="0" ry="0" x="501.1111043294271" y="230.33333333333337" width="80" height="25" style="stroke: rgb(0, 0, 0); stroke-width: 1; fill: url(&quot;#_pgf2h2g4x1cudg-full-view&quot;); fill-opacity: 1;"/></g><g><defs><!-- react-text: 1518 --> <!-- /react-text --><linearGradient id="_pgfi3r9r3v0bdg-full-view" gradientTransform=" translate(0,0) rotate(0 0.5 0.5)" x1="0" y1="0.5" x2="1" y2="0.5"><!-- react-text: 1520 --> <!-- /react-text --><stop offset="0" style="stop-color: rgb(205, 235, 142); stop-opacity: 1;"/><stop offset="1" style="stop-color: rgb(165, 201, 86); stop-opacity: 1;"/></linearGradient></defs><rect rx="0" ry="0" x="502.1111043294271" y="282.2656224568685" width="80" height="25" style="stroke: rgb(0, 0, 0); stroke-width: 1; fill: url(&quot;#_pgfi3r9r3v0bdg-full-view&quot;); fill-opacity: 1;"/></g></g><g/></svg>
        <svg xmlns="http://www.w3.org/2000/svg" xmlns:xlink="http://www.w3.org/1999/xlink" width="700" height="403.8333435058594" style="width:700px;height:403.8333435058594px;font-family:Asana-Math, Asana;background:#FFF;"><g><g><g><text x="157.21875" y="117.88541412353516" style="white-space:pre;stroke:none;fill:rgb(0,0,0);fill-opacity:1;font-size:12px;font-family:Arial, Helvetica, sans-serif;font-weight:400;font-style:normal;dominant-baseline:text-before-edge;text-decoration:none solid rgb(0, 0, 0);">获取图像</text></g></g></g><g><g><g><text x="290.55206298828125" y="118.55208587646484" style="white-space:pre;stroke:none;fill:rgb(0,0,0);fill-opacity:1;font-size:12px;font-family:Arial, Helvetica, sans-serif;font-weight:400;font-style:normal;dominant-baseline:text-before-edge;text-decoration:none solid rgb(0, 0, 0);">提取物体特征</text></g></g></g><g><g><g><text x="447.55206298828125" y="118.55208587646484" style="white-space:pre;stroke:none;fill:rgb(0,0,0);fill-opacity:1;font-size:12px;font-family:Arial, Helvetica, sans-serif;font-weight:400;font-style:normal;dominant-baseline:text-before-edge;text-decoration:none solid rgb(0, 0, 0);">三维坐标</text></g></g></g><g><g><g><text x="581.5520629882812" y="119.55208587646484" style="white-space:pre;stroke:none;fill:rgb(0,0,0);fill-opacity:1;font-size:12px;font-family:Arial, Helvetica, sans-serif;font-weight:400;font-style:normal;dominant-baseline:text-before-edge;text-decoration:none solid rgb(0, 0, 0);">抓取</text></g></g></g><g><g><g><text x="87.33331298828125" y="126.66666412353516" style="white-space:pre;stroke:none;fill:rgb(0,0,0);fill-opacity:1;font-size:15px;font-family:Arial, Helvetica, sans-serif;font-weight:400;font-style:normal;dominant-baseline:text-before-edge;text-decoration:none solid rgb(0, 0, 0);">相机拍照</text></g></g></g><g><g><g><text x="220" y="126.66666412353516" style="white-space:pre;stroke:none;fill:rgb(0,0,0);fill-opacity:1;font-size:15px;font-family:Arial, Helvetica, sans-serif;font-weight:400;font-style:normal;dominant-baseline:text-before-edge;text-decoration:none solid rgb(0, 0, 0);">视觉定位</text></g></g></g><g><g><g><text x="377.66668701171875" y="128.00000762939453" style="white-space:pre;stroke:none;fill:rgb(0,0,0);fill-opacity:1;font-size:15px;font-family:Arial, Helvetica, sans-serif;font-weight:400;font-style:normal;dominant-baseline:text-before-edge;text-decoration:none solid rgb(0, 0, 0);">视觉标定</text></g></g></g><g><g><g><text x="512.2708129882812" y="128.66666412353516" style="white-space:pre;stroke:none;fill:rgb(0,0,0);fill-opacity:1;font-size:15px;font-family:Arial, Helvetica, sans-serif;font-weight:400;font-style:normal;dominant-baseline:text-before-edge;text-decoration:none solid rgb(0, 0, 0);">机器人学</text></g></g></g><g><g><g><text x="218.9375" y="186.00000762939453" style="white-space:pre;stroke:none;fill:rgb(0,0,0);fill-opacity:1;font-size:12px;font-family:Arial, Helvetica, sans-serif;font-weight:400;font-style:normal;dominant-baseline:text-before-edge;text-decoration:none solid rgb(0, 0, 0);">图像预处理</text></g></g></g><g><g><g><text x="219.77081298828125" y="206.66666412353516" style="white-space:pre;stroke:none;fill:rgb(74,74,74);fill-opacity:1;font-size:12px;font-family:Arial, Helvetica, sans-serif;font-weight:400;font-style:normal;dominant-baseline:text-before-edge;text-decoration:none solid rgb(74, 74, 74);">图像灰度化</text></g></g></g><g><g><g><text x="219.4375" y="245.00000762939453" style="white-space:pre;stroke:none;fill:rgb(74,74,74);fill-opacity:1;font-size:12px;font-family:Arial, Helvetica, sans-serif;font-weight:400;font-style:normal;dominant-baseline:text-before-edge;text-decoration:none solid rgb(74, 74, 74);">图像二值化</text></g></g></g><g><g><g><text x="225.9375" y="225.3333511352539" style="white-space:pre;stroke:none;fill:rgb(74,74,74);fill-opacity:1;font-size:12px;font-family:Arial, Helvetica, sans-serif;font-weight:400;font-style:normal;dominant-baseline:text-before-edge;text-decoration:none solid rgb(74, 74, 74);">图像滤波</text></g></g></g><g><g><g><text x="224.9375" y="290.66666412353516" style="white-space:pre;stroke:none;fill:rgb(0,0,0);fill-opacity:1;font-size:12px;font-family:Arial, Helvetica, sans-serif;font-weight:400;font-style:normal;dominant-baseline:text-before-edge;text-decoration:none solid rgb(0, 0, 0);">特征提取</text></g></g></g><g><g><g><text x="225.9375" y="312.3333511352539" style="white-space:pre;stroke:none;fill:rgb(74,74,74);fill-opacity:1;font-size:12px;font-family:Arial, Helvetica, sans-serif;font-weight:400;font-style:normal;dominant-baseline:text-before-edge;text-decoration:none solid rgb(74, 74, 74);">边缘检测</text></g></g></g><g><g><g><text x="225.9375" y="330.00000762939453" style="white-space:pre;stroke:none;fill:rgb(74,74,74);fill-opacity:1;font-size:12px;font-family:Arial, Helvetica, sans-serif;font-weight:400;font-style:normal;dominant-baseline:text-before-edge;text-decoration:none solid rgb(74, 74, 74);">角点检测</text></g></g></g><g><g><g><text x="224.9375" y="375.66666412353516" style="white-space:pre;stroke:none;fill:rgb(0,0,0);fill-opacity:1;font-size:12px;font-family:Arial, Helvetica, sans-serif;font-weight:400;font-style:normal;dominant-baseline:text-before-edge;text-decoration:none solid rgb(0, 0, 0);">目标定位</text></g></g></g><g><g><g><text x="373.10418701171875" y="187.00000762939453" style="white-space:pre;stroke:none;fill:rgb(0,0,0);fill-opacity:1;font-size:12px;font-family:Arial, Helvetica, sans-serif;font-weight:400;font-style:normal;dominant-baseline:text-before-edge;text-decoration:none solid rgb(0, 0, 0);">单目相机标定</text></g></g></g><g><g><g><text x="372.9375" y="207.66666412353516" style="white-space:pre;stroke:none;fill:rgb(74,74,74);fill-opacity:1;font-size:12px;font-family:Arial, Helvetica, sans-serif;font-weight:400;font-style:normal;dominant-baseline:text-before-edge;text-decoration:none solid rgb(74, 74, 74);">获取左右相机</text></g></g><g><g><text x="372.9375" y="228.66666412353516" style="white-space:pre;stroke:none;fill:rgb(74,74,74);fill-opacity:1;font-size:12px;font-family:Arial, Helvetica, sans-serif;font-weight:400;font-style:normal;dominant-baseline:text-before-edge;text-decoration:none solid rgb(74, 74, 74);">内外参矩阵</text></g></g></g><g><g><g><text x="372.9375" y="288.00000762939453" style="white-space:pre;stroke:none;fill:rgb(0,0,0);fill-opacity:1;font-size:12px;font-family:Arial, Helvetica, sans-serif;font-weight:400;font-style:normal;dominant-baseline:text-before-edge;text-decoration:none solid rgb(0, 0, 0);">双目相机标定</text></g></g></g><g><g><g><text x="372.9375" y="309.66666412353516" style="white-space:pre;stroke:none;fill:rgb(74,74,74);fill-opacity:1;font-size:12px;font-family:Arial, Helvetica, sans-serif;font-weight:400;font-style:normal;dominant-baseline:text-before-edge;text-decoration:none solid rgb(74, 74, 74);">获取左右相机</text></g></g><g><g><text x="372.9375" y="330.66666412353516" style="white-space:pre;stroke:none;fill:rgb(74,74,74);fill-opacity:1;font-size:12px;font-family:Arial, Helvetica, sans-serif;font-weight:400;font-style:normal;dominant-baseline:text-before-edge;text-decoration:none solid rgb(74, 74, 74);">相对位姿</text></g></g></g><g><g><g><text x="385.10418701171875" y="374.9271011352539" style="white-space:pre;stroke:none;fill:rgb(0,0,0);fill-opacity:1;font-size:12px;font-family:Arial, Helvetica, sans-serif;font-weight:400;font-style:normal;dominant-baseline:text-before-edge;text-decoration:none solid rgb(0, 0, 0);">手眼标定</text></g></g></g><g><g><g><text x="518.1041870117188" y="186.00000762939453" style="white-space:pre;stroke:none;fill:rgb(0,0,0);fill-opacity:1;font-size:12px;font-family:Arial, Helvetica, sans-serif;font-weight:400;font-style:normal;dominant-baseline:text-before-edge;text-decoration:none solid rgb(0, 0, 0);">D-H建模</text></g></g></g><g><g><g><text x="505.10418701171875" y="237.00000762939453" style="white-space:pre;stroke:none;fill:rgb(0,0,0);fill-opacity:1;font-size:12px;font-family:Arial, Helvetica, sans-serif;font-weight:400;font-style:normal;dominant-baseline:text-before-edge;text-decoration:none solid rgb(0, 0, 0);">正运动学推导</text></g></g></g><g><g><g><text x="506.10418701171875" y="288.9271011352539" style="white-space:pre;stroke:none;fill:rgb(0,0,0);fill-opacity:1;font-size:12px;font-family:Arial, Helvetica, sans-serif;font-weight:400;font-style:normal;dominant-baseline:text-before-edge;text-decoration:none solid rgb(0, 0, 0);">逆运动学推导</text></g></g></g></svg>
</svg>
